<svg xmlns="http://www.w3.org/2000/svg" width="520" height="520" viewBox="0 0 520 520">
  <defs>
    <filter id="paper" x="-20%" y="-20%" width="140%" height="140%">
      <feTurbulence type="fractalNoise" baseFrequency="0.72" numOctaves="3" seed="24" result="noise"/>
      <feColorMatrix in="noise" type="matrix" values="0 0 0 0 0.82 0 0 0 0 0.74 0 0 0 0 0.58 0 0 0 0.11 0"/>
    </filter>
    <pattern id="seigaiha" width="96" height="48" patternUnits="userSpaceOnUse">
      <path d="M0 48a48 48 0 0 1 96 0" fill="none" stroke="#c7b78f" stroke-width="1.1" opacity="0.16"/>
      <path d="M16 48a32 32 0 0 1 64 0" fill="none" stroke="#c7b78f" stroke-width="1" opacity="0.13"/>
      <path d="M32 48a16 16 0 0 1 32 0" fill="none" stroke="#c7b78f" stroke-width="0.9" opacity="0.11"/>
      <path d="M-48 0a48 48 0 0 1 96 0" fill="none" stroke="#d3c4a1" stroke-width="1" opacity="0.1"/>
      <path d="M48 0a48 48 0 0 1 96 0" fill="none" stroke="#d3c4a1" stroke-width="1" opacity="0.1"/>
    </pattern>
    <radialGradient id="warmWash" cx="28%" cy="24%" r="58%">
      <stop offset="0" stop-color="#f5d7aa" stop-opacity="0.44"/>
      <stop offset="0.58" stop-color="#f6e7ca" stop-opacity="0.18"/>
      <stop offset="1" stop-color="#f7efe2" stop-opacity="0"/>
    </radialGradient>
    <radialGradient id="sageWash" cx="74%" cy="72%" r="64%">
      <stop offset="0" stop-color="#b7cbb4" stop-opacity="0.28"/>
      <stop offset="0.62" stop-color="#dce7d6" stop-opacity="0.14"/>
      <stop offset="1" stop-color="#f7efe2" stop-opacity="0"/>
    </radialGradient>
  </defs>
  <rect width="520" height="520" fill="#f7efe2"/>
  <rect width="520" height="520" fill="url(#warmWash)"/>
  <rect width="520" height="520" fill="url(#sageWash)"/>
  <rect width="520" height="520" fill="url(#seigaiha)" opacity="0.62"/>
  <rect width="520" height="520" filter="url(#paper)" opacity="0.75"/>
  <path d="M42 88c42-28 84-28 126 0s84 28 126 0 84-28 126 0" fill="none" stroke="#ffffff" stroke-width="18" stroke-linecap="round" opacity="0.07"/>
  <path d="M82 372c35-22 70-22 105 0s70 22 105 0 70-22 105 0" fill="none" stroke="#b9a177" stroke-width="16" stroke-linecap="round" opacity="0.05"/>
</svg>
